# xmcd database file
#
# Track frame offsets:
# 150
# 9298
# 20729
# 33342
# 47799
# 58836
# 76114
# 86766
# 99384
# 108977
# 120450
# 132387
# 142712
# 154402
# 162596
# 177909
# 190401
# 200887
# 213304
# 225587
# 237697
# 251338
# 261201
# 271710
# 283131
# 294222
# 305080
# 319908
# 332296
#
# Disc length: 4579 seconds
#
# Revision: 0
# Processed by: cddbd v1.5.2PL0 Copyright (c) Steve Scherf et al.
# Submitted via: CD-Runner 2006.50
#
DISCID=a011e11d
DTITLE=Tom Jones - The Country Collection (Live)
DYEAR=1900
DGENRE=Country
TTITLE0=Nine To Five
TTITLE1=The Most Beautiful Girl In The World
TTITLE2=Behind Closed Doors
TTITLE3=Help Me Make It Through The Night
TTITLE4=Take It To The Limit
TTITLE5=She Believes In Me
TTITLE6=Say You'll Stayu Until Tomorrow
TTITLE7=Let Your Love Flow
TTITLE8=Darlin'
TTITLE9=You Win Again
TTITLE10=Drivin' My Life Away
TTITLE11=Lady Lay Down
TTITLE12=Four Walls
TTITLE13=On The Road Again
TTITLE14=Georgia On My Mind
TTITLE15=Born To Lose
TTITLE16=Release Me
TTITLE17=I Love A Rainy Night
TTITLE18=I Wish I Was 18 Again
TTITLE19=Funny How Time Slips Away
TTITLE20=He Stopped Loving Her Today
TTITLE21=Rose Coloured Glasses
TTITLE22=Middle Age Crazy
TTITLE23=I'm So Lonesome I Could Cry
TTITLE24=Back In The Usa
TTITLE25=Green Green Grass Of Home
TTITLE26=I Can't Stop Loving You
TTITLE27=Make The World Go Away
TTITLE28=Streets Of Laredo
EXTD=
EXTT0=
EXTT1=
EXTT2=
EXTT3=
EXTT4=
EXTT5=
EXTT6=
EXTT7=
EXTT8=
EXTT9=
EXTT10=
EXTT11=
EXTT12=
EXTT13=
EXTT14=
EXTT15=
EXTT16=
EXTT17=
EXTT18=
EXTT19=
EXTT20=
EXTT21=
EXTT22=
EXTT23=
EXTT24=
EXTT25=
EXTT26=
EXTT27=
EXTT28=
PLAYORDER=
